# xmcd CD database file
#
# Track frame offsets:
#	150
#	28717
#	64377
#	100795
#	141050
#	172107
#	203734
#	233887
#	268467
#
# Disc length: 4036 seconds
#
# Revision: 0
# Processed by: cddbd v1.4PL0 Copyright (c) Steve Scherf et al.
# Submitted via: CDex 1.50Beta5
#
DISCID=860fc209
DTITLE=Phil Woods - The Rev and I
DYEAR=1998
DGENRE=Jazz
TTITLE0=The Rev and I
TTITLE1=We Could Make Such Beautiful Music Together
TTITLE2=Hand in Glove
TTITLE3=All Too Soon
TTITLE4=Red Top
TTITLE5=I'm So Scared Of Girls When They're Good Looking
TTITLE6=Loose Change
TTITLE7=Dutch Morning
TTITLE8=Before I Left
EXTD=YEAR: 1998
EXTT0=
EXTT1=
EXTT2=
EXTT3=
EXTT4=
EXTT5=
EXTT6=
EXTT7=
EXTT8=
PLAYORDER=
